<svg xmlns="http://www.w3.org/2000/svg" height="56" viewBox="0 0 56 56" width="56"><path d="m27.9999 51.9062c13.0547 0 23.9064-10.8515 23.9064-23.9062 0-13.0781-10.8751-23.9062-23.9298-23.9062-13.0782 0-23.8828 10.8281-23.8828 23.9062 0 13.0547 10.8281 23.9062 23.9062 23.9062zm-.0234-22.664c-.3985 0-.8438-.1406-1.3125-.6094l-10.336-10.3359c.2813-.2344.9844-.4688 1.9688-.4688h19.3359c1.0078 0 1.6875.2344 1.9687.4688l-10.3359 10.3359c-.4453.4453-.8906.6094-1.289.6094zm-4.6407-1.2422-8.1328 8.1328c-.164-.2812-.2343-.8672-.2343-1.6875v-12.9844c0-.8203.0703-1.3828.2109-1.6171zm9.1876 0 8.1796-8.1562c.1172.2343.1875.7968.1875 1.6171v12.9844c0 .8203-.0703 1.4063-.2343 1.6875zm-4.5704 3.0938c.8438 0 1.5-.3047 2.4141-1.1485l.75-.7031 8.4141 8.414c-.2813.2578-.9376.4219-1.9219.4219h-19.3125c-.9844 0-1.6406-.1641-1.9219-.4219l8.4141-8.414.75.7031c.914.8438 1.5703 1.1485 2.414 1.1485z" fill="#1f6fb0"/></svg>